<?xml version="1.0" encoding="utf-8"?>
<!-- Generator: Adobe Illustrator 15.1.0, SVG Export Plug-In . SVG Version: 6.00 Build 0)  -->
<!DOCTYPE svg PUBLIC "-//W3C//DTD SVG 1.1//EN" "http://www.w3.org/Graphics/SVG/1.1/DTD/svg11.dtd">
<svg version="1.1" xmlns="http://www.w3.org/2000/svg" xmlns:xlink="http://www.w3.org/1999/xlink" x="0px" y="0px" width="800px"
	 height="600px" viewBox="0 0 800 600" style="enable-background:new 0 0 800 600;" xml:space="preserve">
<g id="Calque_2">
	<circle style="fill:#9AAF77;" cx="413.59" cy="297.346" r="267.851"/>
	<g>
		<g>
			<circle style="fill:#F9ECC5;" cx="148.906" cy="228.121" r="14.077"/>
			<circle style="fill:#F9ECC5;" cx="143.896" cy="255.03" r="14.077"/>
			<circle style="fill:#F9ECC5;" cx="168.483" cy="246.879" r="14.077"/>
			<circle style="fill:#F4C708;" cx="153.079" cy="242.023" r="8.212"/>
		</g>
		<path style="fill:#287F04;" d="M179.156,189.814c0,0,4.999,10.036,2.384,20.145c-2.614,10.108-11.852,16.462-11.852,16.462
			s-4.999-10.036-2.384-20.145C169.918,196.167,179.156,189.814,179.156,189.814z"/>
		<path style="fill:#287F04;" d="M196.572,210.39c0,0-2.234,7.08-8.128,10.693c-5.895,3.613-13.217,2.392-13.217,2.392
			s2.234-7.08,8.128-10.693C189.249,209.168,196.572,210.39,196.572,210.39z"/>
	</g>
	<g>
		<g>
			<circle style="fill:#F9ECC5;" cx="268.755" cy="533.474" r="16.16"/>
			<circle style="fill:#F9ECC5;" cx="294.402" cy="551.626" r="16.159"/>
			<circle style="fill:#F9ECC5;" cx="297.718" cy="522.078" r="16.16"/>
			<circle style="fill:#F4C708;" cx="285.254" cy="535.803" r="9.426"/>
		</g>
		<path style="fill:#287F04;" d="M243.353,483.532c0,0,12.864-0.39,22.147,7.193c9.282,7.583,11.468,20.265,11.468,20.265
			s-12.864,0.391-22.146-7.192C245.539,496.215,243.353,483.532,243.353,483.532z"/>
		<path style="fill:#287F04;" d="M273.172,475.262c0,0,6.307,5.73,7.242,13.611c0.935,7.882-3.857,14.929-3.857,14.929
			s-6.307-5.731-7.243-13.612C268.38,482.309,273.172,475.262,273.172,475.262z"/>
	</g>
	<g>
		<g>
			<circle style="fill:#F9ECC5;" cx="536.528" cy="86.565" r="14.077"/>
			<circle style="fill:#F9ECC5;" cx="562.771" cy="94.342" r="14.077"/>
			<circle style="fill:#F9ECC5;" cx="557.218" cy="69.041" r="14.077"/>
			<circle style="fill:#F4C708;" cx="550.789" cy="83.857" r="8.211"/>
		</g>
		<path style="fill:#287F04;" d="M501.57,52.5c0,0,10.501-3.93,20.283-0.279c9.782,3.65,15.143,13.497,15.143,13.497
			s-10.5,3.93-20.283,0.279C506.93,62.347,501.57,52.5,501.57,52.5z"/>
		<path style="fill:#287F04;" d="M523.843,37.315c0,0,6.81,2.957,9.791,9.195c2.982,6.238,1.007,13.394,1.007,13.394
			s-6.81-2.957-9.791-9.195C521.868,44.471,523.843,37.315,523.843,37.315z"/>
	</g>
	<g>
		<circle style="fill:#598209;" cx="256.237" cy="75.279" r="14.077"/>
		<circle style="fill:#598209;" cx="230.204" cy="83.733" r="14.077"/>
		<circle style="fill:#598209;" cx="249.11" cy="101.439" r="14.077"/>
		<circle style="fill:#6B07A0;" cx="246.017" cy="85.587" r="8.211"/>
	</g>
	<g>
		<g>
			<circle style="fill:#598209;" cx="601.673" cy="136.212" r="14.077"/>
			<circle style="fill:#598209;" cx="618.443" cy="157.845" r="14.077"/>
			<circle style="fill:#598209;" cx="628.701" cy="134.06" r="14.077"/>
			<circle style="fill:#6B07A0;" cx="614.833" cy="142.337" r="8.211"/>
		</g>
		<path style="fill:#729E07;" d="M593.17,88.148c0,0,10.82,2.938,16.633,11.612c5.813,8.674,4.418,19.798,4.418,19.798
			s-10.82-2.938-16.633-11.612C591.774,99.272,593.17,88.148,593.17,88.148z"/>
		<path style="fill:#729E07;" d="M620.118,88.818c0,0,3.804,6.375,2.584,13.181c-1.22,6.806-7.001,11.463-7.001,11.463
			s-3.803-6.375-2.583-13.181C614.338,93.476,620.118,88.818,620.118,88.818z"/>
		<path style="fill:#729E07;" d="M637.08,152.202c0,0,9.552-5.871,19.854-4.165c10.3,1.708,17.449,10.343,17.449,10.343
			s-9.552,5.871-19.854,4.164C644.229,160.837,637.08,152.202,637.08,152.202z"/>
	</g>
	<g>
		<g>
			<circle style="fill:#598209;" cx="145.258" cy="375.834" r="11.449"/>
			<circle style="fill:#598209;" cx="158.896" cy="393.428" r="11.449"/>
			<circle style="fill:#598209;" cx="167.239" cy="374.084" r="11.449"/>
			<circle style="fill:#6B07A0;" cx="155.96" cy="380.816" r="6.678"/>
		</g>
		<path style="fill:#729E07;" d="M138.342,336.744c0,0,8.8,2.39,13.527,9.443c4.728,7.055,3.593,16.102,3.593,16.102
			s-8.8-2.389-13.527-9.444C137.207,345.791,138.342,336.744,138.342,336.744z"/>
		<path style="fill:#729E07;" d="M160.259,337.288c0,0,3.093,5.186,2.102,10.722c-0.992,5.533-5.693,9.322-5.693,9.322
			s-3.093-5.186-2.102-10.721C155.558,341.077,160.259,337.288,160.259,337.288z"/>
		<path style="fill:#729E07;" d="M174.053,388.839c0,0,7.769-4.776,16.147-3.388c8.377,1.389,14.192,8.412,14.192,8.412
			s-7.769,4.774-16.146,3.387C179.867,395.862,174.053,388.839,174.053,388.839z"/>
	</g>
	<g>
		<g>
			<circle style="fill:#598209;" cx="425.736" cy="577.388" r="14.735"/>
			<circle style="fill:#598209;" cx="454.263" cy="574.729" r="14.735"/>
			<circle style="fill:#598209;" cx="439.019" cy="552.309" r="14.734"/>
			<circle style="fill:#6B07A0;" cx="438.539" cy="569.206" r="8.595"/>
		</g>
		<path style="fill:#729E07;" d="M378.512,557.898c0,0,8.673-7.905,19.599-8.166c10.925-0.262,19.965,7.219,19.965,7.219
			s-8.672,7.906-19.597,8.166C387.553,565.38,378.512,557.898,378.512,557.898z"/>
		<path style="fill:#729E07;" d="M394.241,534.475c0,0,7.768,0.224,13.094,5.123c5.324,4.899,6.189,12.621,6.189,12.621
			s-7.766-0.222-13.091-5.122C395.109,542.197,394.241,534.475,394.241,534.475z"/>
		<path style="fill:#729E07;" d="M459.748,555.1c0,0,0.18-11.734,7.474-19.873s18.937-9.601,18.937-9.601
			s-0.181,11.733-7.474,19.872C471.391,553.638,459.748,555.1,459.748,555.1z"/>
	</g>
	<g>
		<path style="fill:#789344;" d="M189.557,416.608c0,0-1.359,3.212-2.283,7.939c-4.533-1.629-7.988-2.108-7.988-2.108
			s-0.581,3.438-0.389,8.252c-4.787-0.54-8.259-0.21-8.259-0.21s1.062,16.31,11.752,25.407c10.688,9.1,26.958,7.542,26.958,7.542
			s6.375-15.048,0.91-27.978C204.792,422.523,189.557,416.608,189.557,416.608z"/>
		<path style="fill:#B21F29;" d="M234.16,440.386c14.687,20.027,19.667,53.463,3.994,64.956
			c-15.673,11.494-46.065-3.306-60.752-23.334c-14.687-20.026-8.105-37.696,7.567-49.189
			C200.642,421.324,219.473,420.358,234.16,440.386z"/>
		<g>
			<circle style="fill:#F7FCB6;" cx="185.81" cy="463.72" r="1.955"/>
			<circle style="fill:#F7FCB6;" cx="228.694" cy="475.912" r="1.955"/>
			<circle style="fill:#F7FCB6;" cx="223.649" cy="435.972" r="1.955"/>
			<circle style="fill:#F7FCB6;" cx="208.513" cy="461.618" r="1.955"/>
			<circle style="fill:#F7FCB6;" cx="216.501" cy="446.062" r="1.955"/>
			<circle style="fill:#F7FCB6;" cx="221.336" cy="505.552" r="1.955"/>
			<circle style="fill:#F7FCB6;" cx="177.401" cy="445.641" r="1.955"/>
			<circle style="fill:#F7FCB6;" cx="200.945" cy="438.074" r="1.955"/>
			<circle style="fill:#F7FCB6;" cx="190.224" cy="489.576" r="1.955"/>
			<circle style="fill:#F7FCB6;" cx="234.37" cy="457.203" r="1.955"/>
			<circle style="fill:#F7FCB6;" cx="208.303" cy="481.167" r="1.955"/>
			<circle style="fill:#F7FCB6;" cx="237.943" cy="488.525" r="1.955"/>
		</g>
	</g>
	<g>
		<path style="fill:#789344;" d="M526.354,489.927c0,0,1.283,2.987,3.866,6.658c-4.022,1.998-6.574,4.012-6.574,4.012
			s1.938,2.61,5.298,5.587c-3.451,2.872-5.472,5.419-5.472,5.419s11.652,9.813,24.669,8.496c13.017-1.315,22.47-13.261,22.47-13.261
			s-6.003-13.999-18.226-18.668C540.165,483.5,526.354,489.927,526.354,489.927z"/>
		<path style="fill:#B21F29;" d="M571.13,475.28c22.944,3.051,48.643,21.28,46.255,39.236
			c-2.386,17.958-31.952,28.842-54.898,25.792c-22.945-3.049-30.579-18.879-28.194-36.835
			C536.68,485.517,548.184,472.231,571.13,475.28z"/>
		<g>
			<circle style="fill:#F7FCB6;" cx="555.615" cy="522.852" r="1.823"/>
			<circle style="fill:#F7FCB6;" cx="591.49" cy="501.885" r="1.823"/>
			<circle style="fill:#F7FCB6;" cx="561.376" cy="479.5" r="1.823"/>
			<circle style="fill:#F7FCB6;" cx="568.854" cy="506.229" r="1.823"/>
			<circle style="fill:#F7FCB6;" cx="563.549" cy="490.818" r="1.822"/>
			<circle style="fill:#F7FCB6;" cx="606.673" cy="525.961" r="1.823"/>
			<circle style="fill:#F7FCB6;" cx="538.032" cy="516.838" r="1.822"/>
			<circle style="fill:#F7FCB6;" cx="548.139" cy="496.123" r="1.823"/>
			<circle style="fill:#F7FCB6;" cx="575.85" cy="536.571" r="1.822"/>
			<circle style="fill:#F7FCB6;" cx="582.572" cy="485.994" r="1.822"/>
			<circle style="fill:#F7FCB6;" cx="581.865" cy="518.987" r="1.822"/>
			<circle style="fill:#F7FCB6;" cx="605.941" cy="503.805" r="1.823"/>
		</g>
	</g>
	<g>
		<path style="fill:#789344;" d="M697.729,221.034c0,0-2.591,0.229-6.027,1.273c-0.513-3.556-1.405-5.999-1.405-5.999
			s-2.468,0.82-5.57,2.629c-1.319-3.341-2.75-5.513-2.75-5.513s-10.371,6.403-12.625,16.625s4.461,20.392,4.461,20.392
			s12.14-1.063,18.744-9.184S697.729,221.034,697.729,221.034z"/>
		<path style="fill:#B21F29;" d="M697.666,258.724c-8.055,16.676-28.334,31.648-41.384,25.344
			c-13.051-6.303-13.931-31.494-5.876-48.17c8.054-16.676,21.992-18.52,35.043-12.217
			C698.499,229.984,705.721,242.048,697.666,258.724z"/>
		<g>
			<circle style="fill:#F7FCB6;" cx="665.391" cy="235.041" r="1.458"/>
			<circle style="fill:#F7FCB6;" cx="672.356" cy="267.547" r="1.458"/>
			<circle style="fill:#F7FCB6;" cx="696.897" cy="250.258" r="1.458"/>
			<circle style="fill:#F7FCB6;" cx="674.714" cy="249.258" r="1.458"/>
			<circle style="fill:#F7FCB6;" cx="687.753" cy="249.079" r="1.458"/>
			<circle style="fill:#F7FCB6;" cx="650.264" cy="273.066" r="1.458"/>
			<circle style="fill:#F7FCB6;" cx="674.357" cy="223.181" r="1.458"/>
			<circle style="fill:#F7FCB6;" cx="687.574" cy="236.041" r="1.458"/>
			<circle style="fill:#F7FCB6;" cx="649.906" cy="246.99" r="1.458"/>
			<circle style="fill:#F7FCB6;" cx="686.664" cy="264.743" r="1.458"/>
			<circle style="fill:#F7FCB6;" cx="661.766" cy="255.956" r="1.458"/>
			<circle style="fill:#F7FCB6;" cx="667.285" cy="278.049" r="1.458"/>
		</g>
	</g>
	<g>
		<path style="fill:#789344;" d="M157.469,162.709c0,0,2.714,0.648,6.565,0.752c-0.687,3.792-0.609,6.582-0.609,6.582
			s2.79,0.004,6.562-0.783c0.208,3.848,0.925,6.544,0.925,6.544s12.728-2.99,18.495-12.625c5.767-9.635,2.392-22.265,2.392-22.265
			s-12.714-3.044-22.194,2.976C160.126,149.907,157.469,162.709,157.469,162.709z"/>
		<path style="fill:#B21F29;" d="M170.342,124.38c13.862-14.23,39.584-22.574,50.72-11.726c11.138,10.849,3.473,36.78-10.39,51.011
			c-13.861,14.232-28.671,11.371-39.808,0.524C159.727,153.341,156.479,138.611,170.342,124.38z"/>
		<g>
			<circle style="fill:#F7FCB6;" cx="195.133" cy="159.446" r="1.564"/>
			<circle style="fill:#F7FCB6;" cx="199.092" cy="124.003" r="1.564"/>
			<circle style="fill:#F7FCB6;" cx="168.246" cy="133.256" r="1.564"/>
			<circle style="fill:#F7FCB6;" cx="190.478" cy="141.812" r="1.565"/>
			<circle style="fill:#F7FCB6;" cx="177.15" cy="137.563" r="1.564"/>
			<circle style="fill:#F7FCB6;" cx="223.448" cy="125.895" r="1.564"/>
			<circle style="fill:#F7FCB6;" cx="181.98" cy="168.467" r="1.564"/>
			<circle style="fill:#F7FCB6;" cx="172.902" cy="150.89" r="1.564"/>
			<circle style="fill:#F7FCB6;" cx="214.95" cy="152.551" r="1.564"/>
			<circle style="fill:#F7FCB6;" cx="183.582" cy="121.995" r="1.564"/>
			<circle style="fill:#F7FCB6;" cx="205.93" cy="139.396" r="1.564"/>
			<circle style="fill:#F7FCB6;" cx="207.822" cy="115.04" r="1.564"/>
		</g>
	</g>
	<g>
		<path style="fill:#789344;" d="M631.126,422.432c0,0-1.957,1.127-4.279,3.207c-1.705-2.611-3.302-4.208-3.302-4.208
			s-1.642,1.549-3.422,4.109c-2.261-2.148-4.183-3.334-4.183-3.334s-5.82,8.835-3.854,17.706c1.967,8.87,10.974,14.42,10.974,14.42
			s9.167-5.279,11.394-14.089S631.126,422.432,631.126,422.432z"/>
		<path style="fill:#B21F29;" d="M644.868,452.122c-0.237,16.073-10.721,35.28-23.299,35.094
			c-12.581-0.185-22.491-19.691-22.254-35.767c0.235-16.073,10.533-22.626,23.111-22.441
			C635.007,429.194,645.105,436.048,644.868,452.122z"/>
		<g>
			<circle style="fill:#F7FCB6;" cx="610.796" cy="445.291" r="1.265"/>
			<circle style="fill:#F7FCB6;" cx="628.175" cy="468.329" r="1.266"/>
			<circle style="fill:#F7FCB6;" cx="641.166" cy="445.738" r="1.265"/>
			<circle style="fill:#F7FCB6;" cx="623.338" cy="453.07" r="1.266"/>
			<circle style="fill:#F7FCB6;" cx="633.536" cy="448.157" r="1.266"/>
			<circle style="fill:#F7FCB6;" cx="612.804" cy="480.759" r="1.265"/>
			<circle style="fill:#F7FCB6;" cx="613.514" cy="432.674" r="1.266"/>
			<circle style="fill:#F7FCB6;" cx="628.624" cy="437.96" r="1.266"/>
			<circle style="fill:#F7FCB6;" cx="602.979" cy="460.363" r="1.266"/>
			<circle style="fill:#F7FCB6;" cx="638.411" cy="460.886" r="1.265"/>
			<circle style="fill:#F7FCB6;" cx="615.597" cy="463.081" r="1.265"/>
			<circle style="fill:#F7FCB6;" cx="628.027" cy="478.453" r="1.266"/>
		</g>
	</g>
	<g>
		<path style="fill:#789344;" d="M478.108,25.03c0,0-2.833-1.596-7.114-2.946c1.984-4.029,2.791-7.178,2.791-7.178
			s-3.123-0.898-7.602-1.225c1.001-4.377,1.062-7.627,1.062-7.627s-15.217-0.728-24.764,8.218
			c-9.548,8.945-9.813,24.175-9.813,24.175s13.268,7.483,25.815,3.777C471.031,38.52,478.108,25.03,478.108,25.03z"/>
		<path style="fill:#B21F29;" d="M451.408,63.843c-20.088,11.5-51.576,12.605-60.575-3.115
			c-9.001-15.721,7.894-42.314,27.982-53.815c20.088-11.502,35.762-3.552,44.762,12.167
			C472.578,34.801,471.496,52.342,451.408,63.843z"/>
		<g>
			<circle style="fill:#F7FCB6;" cx="434.871" cy="16.618" r="1.823"/>
			<circle style="fill:#F7FCB6;" cx="419.081" cy="55.053" r="1.823"/>
			<circle style="fill:#F7FCB6;" cx="456.6" cy="54.572" r="1.823"/>
			<circle style="fill:#F7FCB6;" cx="434.436" cy="37.864" r="1.823"/>
			<circle style="fill:#F7FCB6;" cx="448.004" cy="46.894" r="1.822"/>
			<circle style="fill:#F7FCB6;" cx="392.403" cy="45.131" r="1.822"/>
			<circle style="fill:#F7FCB6;" cx="452.495" cy="10.727" r="1.822"/>
			<circle style="fill:#F7FCB6;" cx="457.033" cy="33.325" r="1.823"/>
			<circle style="fill:#F7FCB6;" cx="410.462" cy="17.993" r="1.823"/>
			<circle style="fill:#F7FCB6;" cx="435.812" cy="62.273" r="1.822"/>
			<circle style="fill:#F7FCB6;" cx="416.353" cy="35.619" r="1.822"/>
			<circle style="fill:#F7FCB6;" cx="406.43" cy="62.298" r="1.822"/>
		</g>
	</g>
	<g>
		<g>
			<circle style="fill:#598209;" cx="675.387" cy="283.435" r="11.54"/>
			<circle style="fill:#598209;" cx="666.777" cy="304.156" r="11.539"/>
			<circle style="fill:#598209;" cx="687.882" cy="301.817" r="11.54"/>
			<circle style="fill:#6B07A0;" cx="676.36" cy="295.294" r="6.731"/>
		</g>
		<path style="fill:#729E07;" d="M706.181,257.883c0,0,2.296,8.899-1.526,16.559s-12.313,11.178-12.313,11.178
			s-2.297-8.9,1.526-16.56C697.689,261.4,706.181,257.883,706.181,257.883z"/>
		<path style="fill:#729E07;" d="M716.633,277.354c0,0-2.999,5.295-8.343,7.186c-5.343,1.891-11.005-0.338-11.005-0.338
			s2.999-5.294,8.342-7.186S716.633,277.354,716.633,277.354z"/>
		<path style="fill:#729E07;" d="M678.356,315.144c0,0,8.057,4.424,11.018,12.456c2.961,8.03-0.29,16.625-0.29,16.625
			s-8.057-4.424-11.019-12.454C675.103,323.739,678.356,315.144,678.356,315.144z"/>
	</g>
	<g>
		<g>
			<circle style="fill:#F9ECC5;" cx="679.091" cy="381.228" r="14.077"/>
			<circle style="fill:#F9ECC5;" cx="667.581" cy="356.394" r="14.076"/>
			<circle style="fill:#F9ECC5;" cx="652.266" cy="377.284" r="14.077"/>
			<circle style="fill:#F4C708;" cx="667.633" cy="372.315" r="8.212"/>
		</g>
		<path style="fill:#287F04;" d="M676.634,429.977c0,0-9.89-5.282-13.617-15.036c-3.726-9.754,0.121-20.284,0.121-20.284
			s9.89,5.282,13.615,15.035C680.48,419.446,676.634,429.977,676.634,429.977z"/>
		<path style="fill:#287F04;" d="M650.517,423.299c0,0-2.281-7.064,0.429-13.425s9.386-9.607,9.386-9.607s2.282,7.064-0.429,13.425
			C657.192,420.052,650.517,423.299,650.517,423.299z"/>
	</g>
	<g>
		<g>
			<circle style="fill:#F9ECC5;" cx="346.558" cy="62.684" r="17.004"/>
			<circle style="fill:#F9ECC5;" cx="369.157" cy="38.551" r="17.004"/>
			<circle style="fill:#F9ECC5;" cx="338.829" cy="30.858" r="17.004"/>
			<circle style="fill:#F4C708;" cx="351.351" cy="45.817" r="9.919"/>
		</g>
		<path style="fill:#287F04;" d="M290.854,82.004c0,0,1.438-13.466,10.674-22.056c9.236-8.589,22.769-9.049,22.769-9.049
			s-1.437,13.466-10.672,22.055C304.388,81.544,290.854,82.004,290.854,82.004z"/>
		<path style="fill:#287F04;" d="M286.507,49.734c0,0,6.879-5.753,15.228-5.598c8.35,0.155,15.008,6.16,15.008,6.16
			s-6.878,5.754-15.228,5.599C293.167,55.739,286.507,49.734,286.507,49.734z"/>
	</g>
	<g>
		<circle style="fill:#598209;" cx="666.694" cy="199.154" r="9.664"/>
		<circle style="fill:#598209;" cx="655.807" cy="183.838" r="9.664"/>
		<circle style="fill:#598209;" cx="648.093" cy="199.861" r="9.665"/>
		<circle style="fill:#6B07A0;" cx="657.842" cy="194.578" r="5.637"/>
	</g>
	<g>
		<circle style="fill:#598209;" cx="537.774" cy="528.866" r="14.077"/>
		<circle style="fill:#598209;" cx="511.74" cy="537.32" r="14.077"/>
		<circle style="fill:#598209;" cx="530.647" cy="555.026" r="14.077"/>
		<circle style="fill:#6B07A0;" cx="527.554" cy="539.174" r="8.211"/>
	</g>
	<g>
		<circle style="fill:#598209;" cx="356" cy="566.45" r="10.626"/>
		<circle style="fill:#598209;" cx="348.837" cy="547.068" r="10.626"/>
		<circle style="fill:#598209;" cx="336.052" cy="561.863" r="10.626"/>
		<circle style="fill:#6B07A0;" cx="347.916" cy="559.053" r="6.198"/>
	</g>
	<g>
		<circle style="fill:#598209;" cx="164.869" cy="291.162" r="15.856"/>
		<circle style="fill:#598209;" cx="134.223" cy="287.795" r="15.855"/>
		<circle style="fill:#598209;" cx="145.444" cy="314.726" r="15.855"/>
		<circle style="fill:#6B07A0;" cx="149.604" cy="297.017" r="9.248"/>
	</g>
	<g>
		<circle style="fill:#598209;" cx="494.005" cy="47.332" r="11.002"/>
		<circle style="fill:#598209;" cx="475.373" cy="36.822" r="11.002"/>
		<circle style="fill:#598209;" cx="475.182" cy="57.065" r="11.002"/>
		<circle style="fill:#6B07A0;" cx="482.669" cy="46.902" r="6.417"/>
	</g>
</g>
<g id="renard">
	<g id="queue">
		<path style="fill:#B72D0D;" d="M436.98,215.935c4.877,3.657,9.752,7.313,15.848,10.97c12.188,8.533,20.722,18.285,30.474,30.475
			c9.751,13.409,14.628,26.817,19.504,42.665c10.971,42.663,1.218,84.108-24.379,120.678c-2.438,2.438-3.657,4.875-6.096,8.532
			c-14.627,17.065-30.474,32.913-49.978,41.445c2.438-2.438,2.438-6.096,4.875-9.752c0-1.219,0-2.438,0-3.657
			c7.314-14.627,6.096-32.912,0-47.539c-13.407-29.256-47.539-35.351-74.356-51.198c-6.095-3.655-9.752-7.313-15.847-10.97
			c-12.189-8.532-20.723-18.285-30.474-30.474c-9.752-13.409-14.627-26.818-19.503-42.665
			c-10.971-42.664-1.219-84.109,24.379-120.678c2.438-2.438,3.657-4.875,6.095-8.533c14.628-17.065,30.474-32.912,49.978-41.445
			c-2.438,2.438-2.438,6.095-4.876,9.752c0,1.219,0,2.438,0,3.657c-7.314,14.628-6.095,32.912,0,47.54
			C376.033,193.993,410.164,201.307,436.98,215.935L436.98,215.935z"/>
		<path style="fill:#E0CCA9;" d="M357.359,141.446c0,0,0.098-0.041,0.252-0.105c-0.206-8.353,1.3-16.718,5.013-24.143
			c0-1.219,0-2.438,0-3.657c2.12-3.18,2.4-6.359,4.039-8.737c-0.061-0.187-0.124-0.366-0.189-0.537
			c-9.914,4.499-18.884,10.878-27.232,18.333c0.01,3.342,0.119,5.264,0.119,5.264s3.144-0.816,8.28-2.723
			c0.18,6.13,0.579,9.761,0.579,9.761s3.071-1.012,8.064-3.239C356.778,137.816,357.359,141.446,357.359,141.446z"/>
	</g>
	<g id="corps">
		<path style="fill:#C6350E;" d="M364.712,489.538c-39.944-15.788-44.708-50.678-28.55-85.567
			c15.364-34.89,51.651-69.779,75.473-85.567c23.821,15.788,60.108,50.678,75.473,85.567c16.158,34.89,11.394,69.779-28.55,85.567
			C427.275,489.538,395.994,489.538,364.712,489.538z"/>
	</g>
	<g id="bras_x5F_gauche">
		<path style="fill:#D4582A;" d="M366.864,420.939c-2.133,36.382,13.672,66.04,9.494,69.525
			c-3.411,4.327-33.652-23.763-35.036-70.603c-0.879-22.783,6.479-42.778,14.661-54.969c8.209-12.428,17.241-17.053,20.375-14.557
			C383.211,355.987,367.69,384.788,366.864,420.939z"/>
		<path style="fill:#463E37;" d="M370.79,476.664c-2.445-1.503-3.956-2.257-3.956-2.257s-0.271,1.696-0.483,4.604
			c-2.522-1.362-4.073-2.03-4.073-2.03s-0.109,1.063-0.183,2.926c6.731,8.512,12.839,12.366,14.264,10.558
			c1.762-1.47-0.032-7.607-2.534-16.928c-1.446-0.955-2.302-1.445-2.302-1.445S371.159,473.771,370.79,476.664z"/>
	</g>
	<g id="bras_x5F_droit">
		<path style="fill:#D4582A;" d="M458.063,420.939c2.133,36.382-13.672,66.04-9.494,69.525c3.412,4.327,33.652-23.763,35.036-70.603
			c0.88-22.783-6.479-42.778-14.66-54.969c-8.21-12.428-17.241-17.053-20.376-14.557
			C441.716,355.987,457.236,384.788,458.063,420.939z"/>
		<path style="fill:#463E37;" d="M454.137,476.664c2.445-1.503,3.956-2.257,3.956-2.257s0.271,1.696,0.483,4.604
			c2.523-1.362,4.073-2.03,4.073-2.03s0.108,1.063,0.184,2.926c-6.731,8.512-12.839,12.366-14.265,10.558
			c-1.762-1.47,0.033-7.607,2.535-16.928c1.445-0.955,2.301-1.445,2.301-1.445S453.769,473.771,454.137,476.664z"/>
	</g>
	<g id="cou">
		<path style="fill:#E0CCA9;" d="M478.679,318.403c20.856,46.79-27.049,105.709-65.154,152.499
			c-38.105-46.79-86.011-105.709-65.153-152.499C391.807,318.403,435.242,318.403,478.679,318.403z"/>
	</g>
	<g id="tete">
		<g>
			<path style="fill:#E9DAC2;" d="M517.113,306.631c0.303,0.19-16.755,6.503-37.078,13.979c-20.756,7.288-44.777,15.738-68.4,15.874
				c-23.624-0.136-47.646-8.586-68.401-15.874c-20.323-7.475-37.379-13.788-37.077-13.979c0.411,0.191,5.688-16.815,23.243-34.956
				c17.014-17.96,46.306-37.055,82.235-36.857c35.929-0.198,65.221,18.896,82.235,36.857
				C511.425,289.816,516.702,306.823,517.113,306.631z"/>
		</g>
		<g>
			<path style="fill:#E9DAC2;" d="M497.66,251.929c27.233,28.325-56.716,107.751-85.074,136.076
				c-28.358-28.325-112.308-107.75-85.076-136.076C384.227,251.929,440.943,251.929,497.66,251.929z"/>
		</g>
		<g>
			<path style="fill:#D4582A;" d="M497.66,251.929c-24.044,21.866-57.268,78.971-85.074,136.076
				c-27.807-57.104-61.031-114.21-85.075-136.076C374.496,204.944,450.675,204.943,497.66,251.929z"/>
		</g>
		<circle id="oeil_x5F_gauche" style="fill:#463E37;" cx="352.981" cy="306.672" r="7.821"/>
		<circle id="oeil_x5F_droit" style="fill:#463E37;" cx="473.417" cy="306.672" r="7.821"/>
		<circle id="nez" style="fill:#463E37;" cx="411.635" cy="384.877" r="7.82"/>
		<g id="oreille_x5F_droite">
			<g>
				<path style="fill:#D4582A;" d="M338.426,242.643c-12.439-27.459,3.911-57.104,23.704-68.918
					c10.406,25.034,26.756,39,23.704,48.389C370.032,228.957,354.229,235.799,338.426,242.643z"/>
			</g>
			<g>
				<path style="fill:#B2421F;" d="M349.722,234.626c-7.463-16.476,2.347-34.262,14.223-41.351
					c6.244,15.021,16.054,23.4,14.223,29.034C368.686,226.415,359.204,230.521,349.722,234.626z"/>
			</g>
		</g>
		<g id="oreille_x5F_gauche">
			<g>
				<path style="fill:#D4582A;" d="M437.435,222.113c-3.052-9.389,13.299-23.355,23.704-48.389
					c19.793,11.815,36.144,41.459,23.704,68.918C469.04,235.799,453.237,228.957,437.435,222.113z"/>
			</g>
			<g>
				<path style="fill:#B2421F;" d="M447.197,222.309c-1.831-5.634,7.979-14.013,14.223-29.034
					c11.876,7.089,21.687,24.875,14.223,41.351C466.161,230.521,456.679,226.415,447.197,222.309z"/>
			</g>
		</g>
	</g>
</g>
<g id="renard_x5F_shape">
	<g style="opacity:0;">
		<path style="opacity:0;fill:#49D821;" d="M438.054,215.032c4.877,3.657,9.752,7.313,15.848,10.97
			c12.188,8.533,20.722,18.285,30.474,30.475c9.751,13.409,14.628,26.817,19.504,42.665c10.971,42.663,1.218,84.108-24.379,120.678
			c-2.438,2.438-3.657,4.875-6.096,8.532c-14.627,17.065-30.474,32.913-49.978,41.445c2.438-2.438,2.438-6.096,4.875-9.752
			c0-1.219,0-2.438,0-3.657c7.314-14.627,6.096-32.912,0-47.539c-13.407-29.256-47.539-35.351-74.356-51.198
			c-6.095-3.655-9.752-7.313-15.847-10.97c-12.189-8.532-20.723-18.285-30.475-30.474c-9.752-13.409-14.627-26.818-19.503-42.665
			c-10.971-42.664-1.22-84.109,24.38-120.678c2.438-2.438,3.656-4.875,6.094-8.533c14.629-17.065,30.475-32.912,49.979-41.445
			c-2.438,2.438-2.438,6.095-4.876,9.752c0,1.219,0,2.438,0,3.657c-7.313,14.628-6.095,32.912,0,47.54
			C377.106,193.091,411.237,200.404,438.054,215.032L438.054,215.032z"/>
		<path style="opacity:0;fill:#49D821;" d="M358.433,140.544c0,0,0.098-0.041,0.252-0.105c-0.205-8.353,1.3-16.718,5.013-24.143
			c0-1.219,0-2.438,0-3.657c2.12-3.18,2.399-6.359,4.039-8.737c-0.061-0.187-0.124-0.366-0.189-0.537
			c-9.914,4.499-18.884,10.878-27.232,18.333c0.011,3.342,0.119,5.264,0.119,5.264s3.144-0.816,8.28-2.723
			c0.18,6.13,0.578,9.761,0.578,9.761s3.072-1.012,8.064-3.239C357.851,136.914,358.433,140.544,358.433,140.544z"/>
	</g>
	<g style="opacity:0;">
		<path style="fill:#49D821;" d="M365.785,488.636c-39.944-15.788-44.708-50.678-28.55-85.567
			c15.364-34.89,51.651-69.779,75.473-85.567c23.821,15.788,60.108,50.678,75.473,85.567c16.158,34.89,11.394,69.779-28.55,85.567
			C428.349,488.636,397.067,488.636,365.785,488.636z"/>
	</g>
	<g style="opacity:0;">
		<path style="opacity:0;fill:#49D821;" d="M367.938,420.037c-2.133,36.382,13.673,66.04,9.494,69.525
			c-3.411,4.327-33.651-23.763-35.036-70.603c-0.879-22.783,6.479-42.778,14.66-54.969c8.21-12.428,17.242-17.053,20.376-14.557
			C384.284,355.085,368.764,383.886,367.938,420.037z"/>
		<path style="opacity:0;fill:#49D821;" d="M371.863,475.762c-2.444-1.503-3.956-2.257-3.956-2.257s-0.271,1.696-0.483,4.604
			c-2.522-1.362-4.073-2.03-4.073-2.03s-0.109,1.063-0.183,2.926c6.731,8.512,12.839,12.366,14.264,10.558
			c1.763-1.47-0.032-7.607-2.534-16.928c-1.445-0.955-2.302-1.445-2.302-1.445S372.232,472.869,371.863,475.762z"/>
	</g>
	<g style="opacity:0;">
		<path style="opacity:0;fill:#49D821;" d="M459.136,420.037c2.133,36.382-13.672,66.04-9.494,69.525
			c3.412,4.327,33.652-23.763,35.036-70.603c0.88-22.783-6.479-42.778-14.66-54.969c-8.21-12.428-17.241-17.053-20.376-14.557
			C442.789,355.085,458.31,383.886,459.136,420.037z"/>
		<path style="opacity:0;fill:#49D821;" d="M455.21,475.762c2.445-1.503,3.956-2.257,3.956-2.257s0.271,1.696,0.483,4.604
			c2.523-1.362,4.073-2.03,4.073-2.03s0.108,1.063,0.184,2.926c-6.731,8.512-12.839,12.366-14.265,10.558
			c-1.762-1.47,0.033-7.607,2.535-16.928c1.445-0.955,2.301-1.445,2.301-1.445S454.842,472.869,455.21,475.762z"/>
	</g>
	<g style="opacity:0;">
		<path style="fill:#49D821;" d="M479.752,317.501c20.856,46.79-27.049,105.709-65.154,152.499
			c-38.105-46.79-86.011-105.709-65.154-152.499C392.88,317.501,436.315,317.501,479.752,317.501z"/>
	</g>
	<g style="opacity:0;">
		<path style="fill:#49D821;" d="M518.187,305.729c0.303,0.19-16.755,6.503-37.078,13.979c-20.756,7.288-44.777,15.738-68.4,15.874
			c-23.624-0.136-47.646-8.586-68.401-15.874c-20.323-7.475-37.38-13.788-37.077-13.979c0.411,0.191,5.688-16.815,23.243-34.956
			c17.014-17.96,46.306-37.055,82.235-36.857c35.929-0.198,65.222,18.896,82.235,36.856
			C512.498,288.913,517.775,305.92,518.187,305.729z"/>
	</g>
	<g style="opacity:0;">
		<path style="fill:#49D821;" d="M498.733,251.026c27.233,28.325-56.716,107.751-85.074,136.076
			c-28.358-28.325-112.308-107.75-85.076-136.076C385.3,251.026,442.017,251.026,498.733,251.026z"/>
	</g>
	<g style="opacity:0;">
		<path style="fill:#49D821;" d="M328.584,251.027c24.044,21.866,57.268,78.971,85.075,136.076
			c27.807-57.105,61.03-114.21,85.074-136.076C451.748,204.041,375.569,204.042,328.584,251.027z"/>
	</g>
	<circle style="opacity:0;fill:#49D821;" cx="354.054" cy="305.77" r="7.821"/>
	<circle style="opacity:0;fill:#49D821;" cx="474.49" cy="305.77" r="7.821"/>
	<circle style="opacity:0;fill:#49D821;" cx="412.708" cy="383.975" r="7.82"/>
	<g style="opacity:0;">
		<g style="opacity:0;">
			<path style="fill:#49D821;" d="M339.5,241.74c-12.439-27.459,3.911-57.104,23.704-68.918c10.406,25.034,26.756,39,23.704,48.389
				C371.105,228.054,355.303,234.897,339.5,241.74z"/>
		</g>
		<g style="opacity:0;">
			<path style="fill:#49D821;" d="M350.796,233.724c-7.464-16.476,2.347-34.262,14.223-41.351
				c6.244,15.021,16.054,23.4,14.223,29.034C369.759,225.513,360.278,229.618,350.796,233.724z"/>
		</g>
	</g>
	<g style="opacity:0;">
		<g style="opacity:0;">
			<path style="fill:#49D821;" d="M438.508,221.211c-3.052-9.389,13.299-23.355,23.704-48.389
				c19.793,11.815,36.144,41.459,23.704,68.918C470.113,234.897,454.311,228.054,438.508,221.211z"/>
		</g>
		<g style="opacity:0;">
			<path style="fill:#49D821;" d="M448.271,221.407c-1.831-5.634,7.979-14.013,14.223-29.034
				c11.876,7.089,21.687,24.875,14.223,41.351C467.234,229.618,457.752,225.513,448.271,221.407z"/>
		</g>
	</g>
</g>
</svg>
